<svg width="30" height="30" viewBox="0 0 30 30" fill="none" xmlns="http://www.w3.org/2000/svg">
<path d="M8.75 21.25C6.97917 21.25 5.49479 20.651 4.29688 19.4531C3.09896 18.2552 2.5 16.7708 2.5 15C2.5 13.2292 3.09896 11.7448 4.29688 10.5469C5.49479 9.34896 6.97917 8.75 8.75 8.75H13.125C13.3958 8.75 13.6198 8.83854 13.7969 9.01563C13.974 9.19271 14.0625 9.41667 14.0625 9.6875C14.0625 9.95833 13.974 10.1823 13.7969 10.3594C13.6198 10.5365 13.3958 10.625 13.125 10.625H8.75C7.5 10.625 6.45833 11.0417 5.625 11.875C4.79167 12.7083 4.375 13.75 4.375 15C4.375 16.25 4.79167 17.2917 5.625 18.125C6.45833 18.9583 7.5 19.375 8.75 19.375H13.125C13.3958 19.375 13.6198 19.4635 13.7969 19.6406C13.974 19.8177 14.0625 20.0417 14.0625 20.3125C14.0625 20.5833 13.974 20.8073 13.7969 20.9844C13.6198 21.1615 13.3958 21.25 13.125 21.25H8.75ZM11.0938 15.9375C10.8229 15.9375 10.599 15.849 10.4219 15.6719C10.2448 15.4948 10.1562 15.2708 10.1562 15C10.1562 14.7292 10.2448 14.5052 10.4219 14.3281C10.599 14.151 10.8229 14.0625 11.0938 14.0625H18.9062C19.1771 14.0625 19.401 14.151 19.5781 14.3281C19.7552 14.5052 19.8438 14.7292 19.8438 15C19.8438 15.2708 19.7552 15.4948 19.5781 15.6719C19.401 15.849 19.1771 15.9375 18.9062 15.9375H11.0938ZM16.875 21.25C16.6042 21.25 16.3802 21.1615 16.2031 20.9844C16.026 20.8073 15.9375 20.5833 15.9375 20.3125C15.9375 20.0417 16.026 19.8177 16.2031 19.6406C16.3802 19.4635 16.6042 19.375 16.875 19.375H21.25C22.5 19.375 23.5417 18.9583 24.375 18.125C25.2083 17.2917 25.625 16.25 25.625 15C25.625 13.75 25.2083 12.7083 24.375 11.875C23.5417 11.0417 22.5 10.625 21.25 10.625H16.875C16.6042 10.625 16.3802 10.5365 16.2031 10.3594C16.026 10.1823 15.9375 9.95833 15.9375 9.6875C15.9375 9.41667 16.026 9.19271 16.2031 9.01563C16.3802 8.83854 16.6042 8.75 16.875 8.75H21.25C23.0208 8.75 24.5052 9.34896 25.7031 10.5469C26.901 11.7448 27.5 13.2292 27.5 15C27.5 16.7708 26.901 18.2552 25.7031 19.4531C24.5052 20.651 23.0208 21.25 21.25 21.25H16.875Z" fill="url(#paint0_linear_9_252)"/>
<defs>
<linearGradient id="paint0_linear_9_252" x1="15" y1="8.75" x2="15" y2="21.25" gradientUnits="userSpaceOnUse">
<stop stop-color="#FDBFF0"/>
<stop offset="1" stop-color="#D74EB9"/>
</linearGradient>
</defs>
</svg>
