<svg width="180" height="35" viewBox="0 0 180 35" fill="none" xmlns="http://www.w3.org/2000/svg">
<path d="M16.472 2.704C19.832 2.704 22.856 3.328 25.544 4.576L24.152 10.432L23.528 10.528C21.96 9.632 20.552 8.992 19.304 8.608C18.088 8.192 16.776 7.984 15.368 7.984C12.52 7.984 10.44 8.832 9.128 10.528C7.816 12.224 7.16 15.008 7.16 18.88C7.16 21.44 7.432 23.472 7.976 24.976C8.552 26.48 9.432 27.584 10.616 28.288C11.8 28.96 13.368 29.296 15.32 29.296C15.992 29.296 16.616 29.248 17.192 29.152C17.8 29.056 18.536 28.88 19.4 28.624L19.496 25.984L19.4 21.088L25.4 20.656L25.256 24.976L25.4 32.512C21.56 33.792 18.024 34.432 14.792 34.432C9.992 34.432 6.376 33.12 3.944 30.496C1.544 27.872 0.344 24.112 0.344 19.216C0.344 13.872 1.736 9.792 4.52 6.976C7.336 4.128 11.32 2.704 16.472 2.704ZM31.0475 24.784L30.8075 12.112L37.0955 11.584L36.8075 24.16L37.0955 34H30.7115L31.0475 24.784ZM34.0715 0.735999C35.0635 0.735999 35.8315 1.024 36.3755 1.6C36.9515 2.176 37.2395 2.976 37.2395 4C37.2395 5.088 36.9355 5.952 36.3275 6.592C35.7195 7.232 34.8875 7.552 33.8315 7.552C32.7755 7.552 31.9595 7.264 31.3835 6.688C30.8395 6.112 30.5675 5.296 30.5675 4.24C30.5675 3.184 30.8715 2.336 31.4795 1.696C32.1195 1.056 32.9835 0.735999 34.0715 0.735999ZM52.3951 11.248C55.6591 11.248 58.1551 12.208 59.8831 14.128C61.6111 16.048 62.4751 18.816 62.4751 22.432C62.4751 26.336 61.5471 29.328 59.6911 31.408C57.8351 33.456 55.1631 34.48 51.6751 34.48C48.4111 34.48 45.9151 33.52 44.1871 31.6C42.4591 29.68 41.5951 26.912 41.5951 23.296C41.5951 19.392 42.5231 16.416 44.3791 14.368C46.2351 12.288 48.9071 11.248 52.3951 11.248ZM51.9631 15.568C50.4271 15.568 49.3071 16.08 48.6031 17.104C47.9311 18.128 47.5951 19.776 47.5951 22.048C47.5951 24.992 47.9471 27.088 48.6511 28.336C49.3551 29.584 50.5071 30.208 52.1071 30.208C53.6431 30.208 54.7471 29.712 55.4191 28.72C56.1231 27.696 56.4751 26.032 56.4751 23.728C56.4751 20.816 56.1071 18.736 55.3711 17.488C54.6671 16.208 53.5311 15.568 51.9631 15.568ZM70.4634 15.232L73.8234 28H74.1594L78.1914 15.568L79.0074 11.68H84.5754L77.0874 34H70.2234L63.8874 11.824L69.8394 11.536L70.4634 15.232ZM95.837 11.248C98.301 11.248 100.221 11.808 101.597 12.928C103.005 14.016 103.709 15.552 103.709 17.536C103.709 18.112 103.613 19.936 103.421 23.008C103.389 23.904 103.341 24.832 103.277 25.792C103.213 26.72 103.181 27.52 103.181 28.192C103.181 28.736 103.261 29.12 103.421 29.344C103.581 29.536 103.869 29.632 104.285 29.632C104.605 29.632 105.021 29.568 105.533 29.44L106.013 29.824L105.437 33.184C104.413 33.856 103.245 34.256 101.933 34.384C100.973 34.288 100.173 33.952 99.533 33.376C98.893 32.768 98.461 31.936 98.237 30.88H97.901C96.301 32.576 94.653 33.76 92.957 34.432C90.653 34.4 88.845 33.792 87.533 32.608C86.221 31.424 85.565 29.808 85.565 27.76C85.565 26.16 85.965 24.912 86.765 24.016C87.597 23.088 88.845 22.464 90.509 22.144L97.853 20.752V18.784C97.853 16.704 96.829 15.664 94.781 15.664C93.789 15.664 92.733 15.888 91.613 16.336C90.525 16.784 89.293 17.488 87.917 18.448L87.437 18.16L86.717 13.936C88.093 13.072 89.565 12.416 91.133 11.968C92.701 11.488 94.269 11.248 95.837 11.248ZM92.717 25.072C92.205 25.2 91.821 25.424 91.565 25.744C91.341 26.032 91.229 26.48 91.229 27.088C91.229 27.92 91.453 28.576 91.901 29.056C92.349 29.504 92.973 29.728 93.773 29.728C95.021 29.728 96.333 28.992 97.709 27.52L97.805 23.968L92.717 25.072ZM123.609 20.08C123.641 18.96 123.385 18.096 122.841 17.488C122.329 16.848 121.577 16.528 120.585 16.528C119.145 16.528 117.609 17.216 115.977 18.592V24.16L116.265 34H109.881L110.217 24.784L109.977 12.112L116.025 11.584V14.848H116.361C118.121 13.248 120.041 12.096 122.121 11.392C124.553 11.392 126.409 11.952 127.689 13.072C128.969 14.16 129.577 15.744 129.513 17.824L129.369 24.208L129.657 34H123.225L123.609 20.08ZM148.734 20.08C148.766 18.96 148.51 18.096 147.966 17.488C147.454 16.848 146.702 16.528 145.71 16.528C144.27 16.528 142.734 17.216 141.102 18.592V24.16L141.39 34H135.006L135.342 24.784L135.102 12.112L141.15 11.584V14.848H141.486C143.246 13.248 145.166 12.096 147.246 11.392C149.678 11.392 151.534 11.952 152.814 13.072C154.094 14.16 154.702 15.744 154.638 17.824L154.494 24.208L154.782 34H148.35L148.734 20.08ZM169.196 11.248C171.66 11.248 173.58 11.808 174.956 12.928C176.364 14.016 177.068 15.552 177.068 17.536C177.068 18.112 176.972 19.936 176.78 23.008C176.748 23.904 176.7 24.832 176.636 25.792C176.572 26.72 176.54 27.52 176.54 28.192C176.54 28.736 176.62 29.12 176.78 29.344C176.94 29.536 177.228 29.632 177.644 29.632C177.964 29.632 178.38 29.568 178.892 29.44L179.372 29.824L178.796 33.184C177.772 33.856 176.604 34.256 175.292 34.384C174.332 34.288 173.532 33.952 172.892 33.376C172.252 32.768 171.82 31.936 171.596 30.88H171.26C169.66 32.576 168.012 33.76 166.316 34.432C164.012 34.4 162.204 33.792 160.892 32.608C159.58 31.424 158.924 29.808 158.924 27.76C158.924 26.16 159.324 24.912 160.124 24.016C160.956 23.088 162.204 22.464 163.868 22.144L171.212 20.752V18.784C171.212 16.704 170.188 15.664 168.14 15.664C167.148 15.664 166.092 15.888 164.972 16.336C163.884 16.784 162.652 17.488 161.276 18.448L160.796 18.16L160.076 13.936C161.452 13.072 162.924 12.416 164.492 11.968C166.06 11.488 167.628 11.248 169.196 11.248ZM166.076 25.072C165.564 25.2 165.18 25.424 164.924 25.744C164.7 26.032 164.588 26.48 164.588 27.088C164.588 27.92 164.812 28.576 165.26 29.056C165.708 29.504 166.332 29.728 167.132 29.728C168.38 29.728 169.692 28.992 171.068 27.52L171.164 23.968L166.076 25.072Z" fill="#141414"/>
</svg>
